PathFileType	4	(X/Y/Z)	C:\Users\Graham\Documents\MATLAB\MOtoNMS_v2_2\MyData\ElaboratedData\S2\17-05-16\staticElaborations\Static1\Static1\\Static1.trc
DataRate	CameraRate	NumFrames	NumMarkers	Units	OrigDataRate	DataStartFrame
100	100	8	38	mm	100	2
Frame#	Time	V_Sacral			R_ASIS			L_ASIS			R_Knee_Lat			R_Knee_Med			R_Thigh_Upper			R_Thigh_Front			R_Thigh_Rear			L_Knee_Lat			L_Knee_Med			L_Thigh_Upper			L_Thigh_Front			L_Thigh_Rear			R_Ankle_Lat			R_Ankle_Med			R_Shank_Upper			R_Shank_Front			R_Shank_Rear			L_Ankle_Lat			L_Ankle_Med			L_Shank_Upper			L_Shank_Front			L_Shank_Rear			R_Heel			R_MTP1			R_MTP5			L_Heel			L_MTP1			L_MTP5			Clavicle			R_Acromium			L_Acromium			LAJC			RAJC			LHJC			RHJC			LKJC			RKJC		
		X1	Y1	Z1	X2	Y2	Z2	X3	Y3	Z3	X4	Y4	Z4	X5	Y5	Z5	X6	Y6	Z6	X7	Y7	Z7	X8	Y8	Z8	X9	Y9	Z9	X10	Y10	Z10	X11	Y11	Z11	X12	Y12	Z12	X13	Y13	Z13	X14	Y14	Z14	X15	Y15	Z15	X16	Y16	Z16	X17	Y17	Z17	X18	Y18	Z18	X19	Y19	Z19	X20	Y20	Z20	X21	Y21	Z21	X22	Y22	Z22	X23	Y23	Z23	X24	Y24	Z24	X25	Y25	Z25	X26	Y26	Z26	X27	Y27	Z27	X28	Y28	Z28	X29	Y29	Z29	X30	Y30	Z30	X31	Y31	Z31	X32	Y32	Z32	X33	Y33	Z33	X34	Y34	Z34	X35	Y35	Z35	X36	Y36	Z36	X37	Y37	Z37	X38	Y38	Z38	

119	1.180000	160.543572	1005.647267	29.300792	367.456739	1017.234098	149.210197	356.197573	1026.365680	-86.386574	235.500505	519.173575	217.472670	241.361794	512.998708	108.272866	381.828488	740.584336	168.597857	334.472985	636.758716	138.848703	320.121046	648.637027	200.357399	251.996874	535.198432	-147.003741	244.397820	509.596588	-36.661419	357.280713	782.011167	-139.556976	352.013962	666.582842	-112.583486	299.441155	671.054663	-159.734730	187.879021	106.780313	244.189117	220.004105	107.813646	159.048404	265.874617	374.509340	220.152204	255.620311	258.958841	187.299981	214.007957	262.588277	253.894985	212.957259	90.941136	-182.741565	252.642050	113.285227	-101.992436	276.455942	357.106518	-163.299383	271.497487	245.669615	-129.301210	225.029887	250.649894	-190.570727	123.285806	62.996431	194.037993	354.865746	67.654305	200.271615	333.739784	51.250915	282.525801	147.201077	63.825180	-129.748378	388.565052	64.265659	-158.063982	354.549221	50.252970	-235.511078	330.945321	1391.731147	32.117078	233.724648	1441.223988	226.139136	267.016803	1442.243492	-171.035363	232.799654	102.113182	-142.367000	203.941563	107.296979	201.618761	306.219361	938.921491	-54.498112	314.346827	932.329828	115.568197	248.197347	522.397510	-91.832580	238.431149	516.086142	162.872768	
120	1.190000	160.521055	1005.634579	29.325255	367.426343	1017.247672	149.243475	356.168458	1026.381556	-86.351938	235.502992	519.170779	217.484438	241.347038	512.973344	108.260856	381.824054	740.592783	168.626896	334.476715	636.766102	138.870457	320.121058	648.643728	200.377320	252.042306	535.199662	-146.987598	244.444966	509.595093	-36.649244	357.292369	782.028967	-139.532134	352.045992	666.599506	-112.565748	299.471025	671.065469	-159.713212	187.878594	106.780353	244.188856	220.004039	107.813286	159.049186	265.879988	374.506588	220.164018	255.625593	258.957206	187.306256	214.008135	262.584406	253.899851	212.962298	90.941439	-182.739459	252.646153	113.283148	-101.988033	276.490317	357.098471	-163.284046	271.515864	245.661262	-129.290712	225.050585	250.649122	-190.560268	123.285156	62.994246	194.041232	354.870384	67.658011	200.272076	333.737218	51.250144	282.525614	147.201653	63.826370	-129.746593	388.566185	64.266505	-158.062808	354.547883	50.253712	-235.510899	330.885143	1391.754274	32.144139	233.639192	1441.231692	226.163626	266.941436	1442.240703	-171.011067	232.804226	102.112294	-142.363746	203.941317	107.296820	201.619021	306.203272	938.930349	-54.465723	314.329817	932.337021	115.599686	248.243636	522.397377	-91.818421	238.425015	516.072061	162.872647	
121	1.200000	160.495452	1005.624076	29.349175	367.394802	1017.260594	149.274229	356.136638	1026.396961	-86.319717	235.502510	519.168256	217.494686	241.326845	512.948337	108.252318	381.815956	740.600963	168.654935	334.477172	636.774240	138.890772	320.116058	648.649751	200.395738	252.078920	535.201011	-146.971891	244.483682	509.592372	-36.637444	357.295894	782.045743	-139.509229	352.068249	666.615178	-112.549481	299.491242	671.075997	-159.692866	187.877702	106.780615	244.188755	220.003189	107.812847	159.049186	265.882519	374.504290	220.174328	255.630337	258.956715	187.311770	214.007319	262.581135	253.904376	212.966711	90.941639	-182.737750	252.649974	113.280985	-101.984447	276.518640	357.091339	-163.269531	271.531113	245.653905	-129.280920	225.067664	250.648380	-190.550178	123.285162	62.992248	194.044051	354.874565	67.661856	200.272615	333.734581	51.249438	282.525387	147.202240	63.827096	-129.745177	388.567766	64.267418	-158.061570	354.546028	50.254630	-235.511209	330.828717	1391.775354	32.173142	233.558322	1441.237919	226.191141	266.873355	1442.242385	-170.983246	232.808342	102.111312	-142.361099	203.940446	107.296731	201.618970	306.183252	938.939429	-54.435395	314.310003	932.344306	115.629039	248.281301	522.396691	-91.804667	238.414677	516.058296	162.873502	
122	1.210000	160.466520	1005.615431	29.372506	367.361797	1017.272842	149.302492	356.102196	1026.411769	-86.289905	235.499447	519.166055	217.503754	241.305808	512.928359	108.250079	381.804167	740.608962	168.682086	334.474384	636.783160	138.909899	320.106579	648.655289	200.412964	252.106811	535.202429	-146.956498	244.513878	509.588488	-36.625546	357.291403	782.061329	-139.488049	352.081053	666.629722	-112.534206	299.501945	671.086068	-159.673357	187.876317	106.780931	244.188903	220.001525	107.812382	159.048454	265.882349	374.502405	220.183336	255.634275	258.957157	187.316709	214.005334	262.578159	253.908553	212.970456	90.941922	-182.736448	252.653371	113.278775	-101.981505	276.540750	357.085289	-163.255717	271.543191	245.647658	-129.271760	225.081095	250.647780	-190.540526	123.285821	62.990405	194.046329	354.878254	67.665743	200.273154	333.732012	51.248911	282.525222	147.202871	63.827367	-129.744239	388.569791	64.268355	-158.060293	354.543841	50.255809	-235.511889	330.776077	1391.793414	32.203797	233.482928	1441.241968	226.221569	266.812716	1442.248370	-170.952093	232.811913	102.110349	-142.358977	203.938921	107.296657	201.618678	306.159395	938.948559	-54.407172	314.287187	932.351584	115.656229	248.310345	522.395459	-91.791022	238.402628	516.047207	162.876917	
123	1.220000	160.434116	1005.608202	29.395199	367.326958	1017.284380	149.328463	356.065300	1026.425906	-86.262278	235.494213	519.164180	217.511981	241.289640	512.918880	108.257373	381.788736	740.616917	168.708411	334.468473	636.792807	138.928044	320.093387	648.660602	200.429224	252.126264	535.203863	-146.941270	244.535755	509.583656	-36.613041	357.279358	782.075620	-139.468322	352.085014	666.643044	-112.519514	299.503564	671.095518	-159.654383	187.874482	106.781130	244.189313	219.999144	107.811962	159.047073	265.879737	374.500922	220.191223	255.637071	258.958159	187.321183	214.002062	262.575195	253.912345	212.973495	90.942420	-182.735493	252.656226	113.276604	-101.978887	276.556659	357.080455	-163.242451	271.552134	245.642599	-129.263120	225.090909	250.647408	-190.531356	123.287066	62.988678	194.048018	354.881314	67.669515	200.273624	333.729654	51.248644	282.525196	147.203535	63.827233	-129.743877	388.572121	64.269264	-158.058993	354.541534	50.257266	-235.512796	330.727163	1391.807715	32.235806	233.413584	1441.243248	226.254668	266.759465	1442.258250	-170.917945	232.814860	102.109512	-142.357190	203.936813	107.296546	201.618193	306.131932	938.957585	-54.380949	314.261213	932.358731	115.681346	248.331009	522.393759	-91.777155	238.391926	516.041530	162.884677	
124	1.230000	160.398219	1005.601888	29.417220	367.289915	1017.295142	149.352493	356.026191	1026.439338	-86.236425	235.487139	519.162600	217.519690	241.284634	512.925717	108.277648	381.769754	740.624983	168.733962	334.459622	636.803033	138.945404	320.077320	648.665968	200.444675	252.137641	535.205258	-146.926020	244.549705	509.578190	-36.599412	357.260445	782.088546	-139.449723	352.080880	666.655084	-112.505053	299.496720	671.104197	-159.635659	187.872291	106.781038	244.189930	219.996275	107.811668	159.045163	265.874997	374.499855	220.198145	255.638402	258.959282	187.325230	213.997473	262.572035	253.915706	212.975795	90.943192	-182.734764	252.658485	113.274597	-101.976143	276.566490	357.076935	-163.229563	271.558031	245.638771	-129.254866	225.097175	250.647321	-190.522652	123.288767	62.987050	194.049127	354.883551	67.672975	200.273973	333.727640	51.248661	282.525346	147.204191	63.826772	-129.744147	388.574488	64.270081	-158.057674	354.539318	50.258937	-235.513783	330.681890	1391.817829	32.268859	233.350543	1441.241353	226.290060	266.713347	1442.271407	-170.881285	232.817140	102.108895	-142.355453	203.934283	107.296353	201.617546	306.101214	938.966383	-54.356485	314.231992	932.365598	115.704595	248.343673	522.391724	-91.762716	238.385887	516.044158	162.898669	
125	1.240000	160.358937	1005.595998	29.438573	367.250349	1017.305039	149.375049	355.985169	1026.452065	-86.211807	235.478399	519.161261	217.527191	241.296884	512.954360	108.314205	381.747327	740.633292	168.758830	334.448016	636.813604	138.962201	320.059128	648.671626	200.459455	252.141315	535.206550	-146.910525	244.556232	509.572442	-36.584204	357.235457	782.100074	-139.431891	352.069414	666.665825	-112.490512	299.482133	671.111969	-159.616913	187.869864	106.780503	244.190641	219.993239	107.811590	159.042908	265.868415	374.499229	220.204243	255.638027	258.960136	187.328853	213.991621	262.568589	253.918615	212.977329	90.944225	-182.734085	252.660186	113.272925	-101.972742	276.570444	357.074777	-163.216888	271.560991	245.636177	-129.246855	225.099983	250.647550	-190.514323	123.290755	62.985531	194.049704	354.884777	67.675917	200.274173	333.726081	51.248927	282.525670	147.204786	63.826078	-129.745052	388.576548	64.270730	-158.056326	354.537389	50.260702	-235.514718	330.640203	1391.823681	32.302646	233.293755	1441.236109	226.327247	266.673933	1442.287058	-170.842719	232.818758	102.108575	-142.353413	203.931551	107.296046	201.616775	306.067665	938.974856	-54.333434	314.199499	932.372023	115.726273	248.348774	522.389496	-91.747364	238.387641	516.057811	162.920698	
126	1.250000	160.316494	1005.590117	29.459297	367.208021	1017.313979	149.396659	355.942564	1026.464102	-86.187837	235.467976	519.160099	217.534774	241.331319	513.009130	108.369685	381.721545	740.641925	168.783180	334.433794	636.824222	138.978719	320.039335	648.677726	200.473733	252.137645	535.207667	-146.894532	244.555878	509.566724	-36.567070	357.205196	782.110205	-139.414451	352.051331	666.675290	-112.475623	299.460563	671.118731	-159.597881	187.867319	106.779404	244.191319	219.990388	107.811801	159.040573	265.860184	374.499059	220.209669	255.635840	258.960473	187.332068	213.984638	262.564883	253.921116	212.978085	90.945441	-182.733251	252.661474	113.271791	-101.968146	276.568779	357.073990	-163.204290	271.561137	245.634775	-129.238953	225.099442	250.648108	-190.506206	123.292840	62.984170	194.049816	354.884871	67.678142	200.274207	333.725039	51.249355	282.526132	147.205274	63.825245	-129.746519	388.577941	64.271136	-158.054937	354.535898	50.262407	-235.515502	330.602104	1391.825539	32.336871	233.242925	1441.227628	226.365646	266.640643	1442.304314	-170.802937	232.819780	102.108616	-142.350698	203.928853	107.295603	201.615946	306.031736	938.982932	-54.311398	314.163777	932.377859	115.746744	248.346761	522.387196	-91.730801	238.399647	516.084614	162.952229	
